<?xml version="1.0" standalone="no"?>
<!DOCTYPE svg PUBLIC "-//W3C//DTD SVG 20010904//EN"
 "http://www.w3.org/TR/2001/REC-SVG-20010904/DTD/svg10.dtd">
<svg version="1.0" xmlns="http://www.w3.org/2000/svg"
 width="294.000000pt" height="294.000000pt" viewBox="0 0 294.000000 294.000000"
 preserveAspectRatio="xMidYMid meet">
<metadata>
Created by potrace 1.14, written by Peter Selinger 2001-2017
</metadata>
<g transform="translate(0.000000,294.000000) scale(0.100000,-0.100000)"
fill="#000000" stroke="none">
<path d="M606 2378 c-11 -51 -45 -214 -49 -238 -9 -48 -218 -1095 -224 -1118
l-5 -22 343 1 c189 0 367 4 394 9 104 18 122 22 187 44 330 115 527 405 529
780 1 160 -50 293 -152 394 -76 77 -170 124 -314 158 -16 4 -182 9 -367 11
l-337 5 -5 -24z m673 -84 c270 -51 405 -221 395 -499 -4 -126 -18 -191 -64
-292 -76 -167 -214 -296 -382 -357 -123 -45 -206 -53 -505 -54 l-275 0 6 22
c3 15 127 626 202 1001 26 131 37 181 40 187 7 12 513 5 583 -8z"/>
<path d="M2284 1781 c-57 -80 -108 -153 -114 -161 -6 -8 -98 -138 -206 -289
-107 -150 -216 -304 -242 -341 -217 -312 -285 -395 -360 -435 -20 -11 -38 -27
-39 -35 -2 -13 24 -15 187 -16 177 -1 190 0 190 17 0 14 -11 19 -46 25 -25 3
-57 16 -70 28 -53 47 -26 120 120 326 l96 135 245 0 c135 0 245 -2 246 -5 4
-28 12 -199 13 -291 1 -156 -11 -176 -121 -195 -43 -7 -53 -12 -53 -27 0 -10
46 -13 230 -13 199 0 230 2 232 15 2 10 -8 21 -23 28 -30 13 -57 48 -65 84 -5
28 -11 104 -19 238 -5 92 -12 201 -20 316 -2 33 -7 105 -10 160 -3 55 -8 127
-10 160 -2 33 -7 110 -11 170 -4 61 -8 124 -9 140 -2 17 -3 48 -4 71 -1 30 -5
41 -17 41 -8 0 -61 -65 -120 -146z m-27 -113 c1 -26 17 -310 28 -500 4 -67 2
-88 -7 -89 -72 -6 -438 -2 -438 4 0 8 51 87 73 112 7 9 93 129 117 165 6 8 41
58 78 110 37 52 75 106 85 120 10 14 27 40 38 58 23 36 26 37 26 20z"/>
</g>
</svg>
